<?xml version="1.0" encoding="UTF-8" standalone="no"?>
<!-- Created with Inkscape (http://www.inkscape.org/) -->

<svg
   xmlns:dc="http://purl.org/dc/elements/1.1/"
   xmlns:cc="http://creativecommons.org/ns#"
   xmlns:rdf="http://www.w3.org/1999/02/22-rdf-syntax-ns#"
   xmlns:svg="http://www.w3.org/2000/svg"
   xmlns="http://www.w3.org/2000/svg"
   xmlns:sodipodi="http://sodipodi.sourceforge.net/DTD/sodipodi-0.dtd"
   xmlns:inkscape="http://www.inkscape.org/namespaces/inkscape"
   width="160.71231mm"
   height="89.500824mm"
   viewBox="0 0 569.45307 317.1289"
   id="svg3633"
   version="1.1"
   inkscape:version="0.91 r13725"
   sodipodi:docname="drawing.svg">
  <defs
     id="defs3635">
    <clipPath
       id="clip1">
      <path
         inkscape:connector-curvature="0"
         d="m 40,588.29687 176,0 L 216,722 40,722 Z m 0,0"
         id="path7" />
    </clipPath>
    <clipPath
       id="clip2">
      <path
         inkscape:connector-curvature="0"
         d="m 194,588.29687 134,0 L 328,722 194,722 Z m 0,0"
         id="path10" />
    </clipPath>
    <clipPath
       id="clip3">
      <path
         inkscape:connector-curvature="0"
         d="m 301,588.29687 138,0 L 439,722 301,722 Z m 0,0"
         id="path13" />
    </clipPath>
    <clipPath
       id="clip4">
      <path
         inkscape:connector-curvature="0"
         d="m 443,588.29687 12.5625,0 0,12.70313 L 443,601 Z m 0,0"
         id="path16" />
    </clipPath>
    <clipPath
       id="clipPath3549">
      <path
         inkscape:connector-curvature="0"
         d="m 40,588.29687 176,0 L 216,722 40,722 Z m 0,0"
         id="path3551" />
    </clipPath>
    <clipPath
       id="clipPath3553">
      <path
         inkscape:connector-curvature="0"
         d="m 194,588.29687 134,0 L 328,722 194,722 Z m 0,0"
         id="path3555" />
    </clipPath>
    <clipPath
       id="clipPath3557">
      <path
         inkscape:connector-curvature="0"
         d="m 301,588.29687 138,0 L 439,722 301,722 Z m 0,0"
         id="path3559" />
    </clipPath>
    <clipPath
       id="clipPath3561">
      <path
         inkscape:connector-curvature="0"
         d="m 443,588.29687 12.5625,0 0,12.70313 L 443,601 Z m 0,0"
         id="path3563" />
    </clipPath>
  </defs>
  <sodipodi:namedview
     id="base"
     pagecolor="#ffffff"
     bordercolor="#666666"
     borderopacity="1.0"
     inkscape:pageopacity="0.0"
     inkscape:pageshadow="2"
     inkscape:zoom="0.35"
     inkscape:cx="-130.27346"
     inkscape:cy="118.56442"
     inkscape:document-units="px"
     inkscape:current-layer="layer1"
     showgrid="false"
     fit-margin-top="0"
     fit-margin-left="0"
     fit-margin-right="0"
     fit-margin-bottom="0"
     inkscape:window-width="1280"
     inkscape:window-height="1002"
     inkscape:window-x="1912"
     inkscape:window-y="-8"
     inkscape:window-maximized="1" />
  <metadata
     id="metadata3638">
    <rdf:RDF>
      <cc:Work
         rdf:about="">
        <dc:format>image/svg+xml</dc:format>
        <dc:type
           rdf:resource="http://purl.org/dc/dcmitype/StillImage" />
        <dc:title></dc:title>
      </cc:Work>
    </rdf:RDF>
  </metadata>
  <g
     inkscape:label="Layer 1"
     inkscape:groupmode="layer"
     id="layer1"
     transform="translate(-78.130601,-333.79771)">
    <g
       transform="matrix(1.25,0,0,1.25,78.130601,-401.57338)"
       id="surface1">
      <path
         inkscape:connector-curvature="0"
         style="fill:#211e1e;fill-opacity:1;fill-rule:nonzero;stroke:none"
         d="m 244.14844,810.23828 0.17968,0 c 0.21094,0 0.38282,-0.0703 0.38282,-0.24219 0,-0.14843 -0.10938,-0.25 -0.35157,-0.25 -0.10156,0 -0.17187,0.008 -0.21093,0.0195 z m -0.0117,0.93359 -0.38281,0 0,-1.64843 c 0.15234,-0.0312 0.36328,-0.0508 0.63671,-0.0508 0.3086,0 0.44922,0.0508 0.57032,0.12109 0.0898,0.0703 0.16015,0.19922 0.16015,0.36328 0,0.17969 -0.14062,0.32031 -0.33984,0.38281 l 0,0.0195 c 0.16016,0.0586 0.25,0.17969 0.30078,0.40235 0.0508,0.25 0.082,0.35156 0.12109,0.41015 l -0.41406,0 c -0.0469,-0.0586 -0.0781,-0.21093 -0.1289,-0.40234 -0.0312,-0.17969 -0.13282,-0.26172 -0.34375,-0.26172 l -0.17969,0 z m -1.01563,-0.86328 c 0,0.73438 0.54297,1.31641 1.28516,1.31641 0.72656,0 1.25781,-0.58203 1.25781,-1.30469 0,-0.73828 -0.53125,-1.32812 -1.26562,-1.32812 -0.73438,0 -1.27735,0.58984 -1.27735,1.3164 z m 2.96875,0 c 0,0.9336 -0.73437,1.66797 -1.6914,1.66797 -0.94532,0 -1.69922,-0.73437 -1.69922,-1.66797 0,-0.91406 0.7539,-1.64843 1.69922,-1.64843 0.95703,0 1.6914,0.73437 1.6914,1.64843"
         id="path19" />
      <path
         inkscape:connector-curvature="0"
         style="fill:#1e6630;fill-opacity:1;fill-rule:nonzero;stroke:none"
         d="m 250.26562,743.47266 -1.99609,7.98437 11.10938,0 -1.35938,5.53125 -11.15625,0 -3.03906,12.47266 -7.39063,0 7.89063,-31.7461 22.35547,0 -1.44922,5.75782 -14.96485,0"
         id="path21" />
      <path
         inkscape:connector-curvature="0"
         style="fill:#1e6630;fill-opacity:1;fill-rule:nonzero;stroke:none"
         d="m 262.10156,769.46094 6.25781,-24.94532 6.89454,0 -0.86329,3.49219 c 2.94922,-2.44922 4.39844,-3.53515 6.34766,-3.53515 l 2.58594,0 -1.67578,6.80078 -2.67578,0 c -1.90625,0 -3.35547,0.22656 -5.57813,1.08984 l -4.30859,17.09766 -6.98438,0"
         id="path23" />
      <path
         inkscape:connector-curvature="0"
         style="fill:#1e6630;fill-opacity:1;fill-rule:nonzero;stroke:none"
         d="m 290.76562,754.8125 8.84375,0 c 0.72657,-3.35547 0.76954,-4.39844 0.31641,-4.85156 -0.27344,-0.27344 -0.81641,-0.36328 -1.99609,-0.36328 l -3.12891,0 c -1.40625,0 -1.99609,0.13671 -2.40234,0.49609 -0.36328,0.41016 -0.72657,1.08984 -1.63282,4.71875 z m -2.08593,14.64844 c -2.44922,0 -3.71875,-0.5 -4.67188,-1.45313 -1.76953,-1.76953 -2.08594,-4.67187 -0.40625,-11.51953 1.63281,-6.71094 2.76563,-8.52344 4.125,-9.92969 1.67969,-1.67968 3.44922,-2.04297 6.07813,-2.04297 l 6.9375,0 c 2.44922,0 3.71875,0.5 4.67187,1.45313 1.76953,1.76953 1.94922,4.57812 0.0899,11.60937 -0.1836,0.72657 -0.45313,1 -1.26954,1 l -14.42187,0 c -0.90625,3.94141 -0.86328,4.98438 -0.40625,5.39454 0.26953,0.27343 0.81641,0.40625 1.99609,0.40625 l 3.17188,0 c 1.63281,0 2.13281,-0.043 2.58594,-0.54297 0.3164,-0.31641 0.63671,-0.9961 1.08593,-2.67578 l 6.35157,0 c -1.08985,3.90234 -1.85938,5.30468 -2.90235,6.34765 -1.58594,1.54297 -3.1289,1.95313 -5.71484,1.95313 l -7.30078,0"
         id="path25" />
      <path
         inkscape:connector-curvature="0"
         style="fill:#1e6630;fill-opacity:1;fill-rule:nonzero;stroke:none"
         d="m 321.96875,741.07031 -7.53125,0 1.5,-5.98437 7.52734,0 z m -7.44141,28.39063 -6.84375,0 6.25782,-24.94532 6.84765,0 -6.26172,24.94532"
         id="path27" />
      <path
         inkscape:connector-curvature="0"
         style="fill:#1e6630;fill-opacity:1;fill-rule:nonzero;stroke:none"
         d="m 329.72266,761.29687 c 0.36328,0.36329 0.90625,0.54297 1.99609,0.54297 l 1.35937,0 c 1.58594,0 2.40625,-0.45312 4.71875,-1.58593 l 2.26563,-9.11719 c -1.40625,-0.85938 -2.44922,-1.17578 -3.58203,-1.17578 l -1.9961,0 c -1.26953,0 -1.94921,0.13281 -2.53906,0.72265 -0.54297,0.54688 -1.04297,1.54297 -1.99609,5.21485 -0.90625,3.8125 -0.81641,4.85547 -0.22656,5.39843 z m -3.03907,8.52735 c -0.0898,0.67969 -0.0898,1.3125 0.1836,1.58594 0.26953,0.26953 0.67968,0.36328 1.72265,0.36328 l 4.08203,0 c 1.04297,0 1.58594,-0.0937 1.94922,-0.41016 0.40625,-0.36328 0.63672,-0.76953 1.13282,-2.90234 l 1.13281,-4.53516 c -3.94531,2.76563 -4.98828,3.22266 -7.34766,3.22266 l -1.35937,0 c -2.35547,0 -3.53516,-0.5 -4.48828,-1.45313 -1.58594,-1.58594 -1.9961,-4.39844 -0.45313,-10.42969 1.40625,-5.4414 2.53906,-7.39453 3.89844,-8.7539 1.67969,-1.67578 3.67578,-2.03906 6.07812,-2.03906 l 1.85938,0 c 1.76953,0 2.8125,0.58984 5.89453,3.1289 l 0.76953,-3.08594 6.98828,0 -6.07812,24.12891 c -1.04297,4.21484 -1.67969,5.44141 -2.94922,6.52734 -1.17969,1.08985 -2.76563,1.54297 -5.30469,1.54297 l -9.38672,0 c -2.08594,0 -3.22265,-0.40625 -3.99219,-1.17968 -0.99609,-0.95313 -1.26953,-2.53907 -0.58984,-5.71094 l 6.25781,0"
         id="path29" />
      <path
         inkscape:connector-curvature="0"
         style="fill:#1e6630;fill-opacity:1;fill-rule:nonzero;stroke:none"
         d="m 363.55469,769.46094 4.08203,-16.46485 c 0.3164,-1.17578 0.27344,-1.99218 -0.17969,-2.44922 -0.27344,-0.3164 -0.67969,-0.49609 -1.67969,-0.49609 l -1.26953,0 c -1.3125,0 -2.17578,0.26953 -4.76172,1.44922 l -4.4414,17.96094 -6.98438,0 8.34375,-33.46875 6.98438,0 -2.9961,11.97265 c 4.17188,-3.03906 5.08203,-3.49218 7.39453,-3.49218 l 2.03907,0 c 1.76953,0 3.03906,0.40625 3.99218,1.35937 1.3125,1.31641 1.40625,3.67578 0.54297,7.12109 l -4.1289,16.50782 -6.9375,0"
         id="path31" />
      <path
         inkscape:connector-curvature="0"
         style="fill:#1e6630;fill-opacity:1;fill-rule:nonzero;stroke:none"
         d="m 386.86719,761.61328 c -0.26953,1.08984 -0.26953,1.67578 0.0469,1.99609 0.26953,0.27344 0.58985,0.41016 1.90235,0.41016 l 3.35546,0 -1.13281,4.44141 -2.58594,0.63672 c -1.22265,0.3164 -2.76562,0.58984 -4.30468,0.58984 -1.95313,0 -3.12891,-0.5 -3.99219,-1.35938 -1,-1 -1.22266,-2.67968 -0.5,-5.71484 l 3.17578,-12.69922 -3.76562,0 1.3164,-5.39844 3.8086,0 1.58593,-6.21093 6.94141,0 -1.54297,6.21093 5.71484,0 -1.3164,5.39844 -5.75781,0 -2.94922,11.69922"
         id="path33" />
      <path
         inkscape:connector-curvature="0"
         style="fill:#faca05;fill-opacity:1;fill-rule:nonzero;stroke:none"
         d="m 0,769.48828 218.10937,0 8.15235,-31.71484 -197.734376,0 L 0,769.48828"
         id="path35" />
      <g
         style="clip-rule:nonzero"
         clip-path="url(#clip1)"
         id="g37">
        <path
           inkscape:connector-curvature="0"
           style="fill:#1e6630;fill-opacity:1;fill-rule:nonzero;stroke:none"
           d="m 167.52734,663 -39.16406,0 c 5.60156,-7.83203 10.94141,-15.33984 15.40625,-21.70313 20.05859,-28.5664 38.01953,-25.82421 38.01953,-25.82421 z m -52.97265,-24.08594 c -23.675784,31.22266 -71.339846,81.53516 -73.968752,82.76172 l 45.429687,0 c 0.05859,-0.0781 12.382813,-17.01172 26.667965,-36.83594 l 49.41797,0 -9.16015,36.83594 29.5625,0 33.05468,-132.98047 -22.63281,0 c -31.35937,0.0312 -50.65234,15.86328 -78.37109,50.21875"
           id="path39" />
      </g>
      <g
         style="clip-rule:nonzero"
         clip-path="url(#clip2)"
         id="g41">
        <path
           inkscape:connector-curvature="0"
           style="fill:#1e6630;fill-opacity:1;fill-rule:nonzero;stroke:none"
           d="m 240.30469,663.89453 31.83593,0 c 5.70313,0 7.14454,0.56641 8.55469,1.90234 1.82813,1.82422 2.08985,5.32032 -0.38281,15.21094 -2.66016,10.26953 -3.99219,12.92969 -5.70313,14.64063 -1.71093,1.51953 -4.18359,2.09375 -8.75,2.09375 l -34.11328,0 z m 12.73437,-51.72266 32.89844,0 c 5.70703,0 7.41797,0.75782 8.37109,1.71094 1.51953,1.51953 1.90235,4.5625 0,13.1211 -2.28515,9.3125 -3.99609,11.60156 -5.51953,13.11718 -1.70703,1.71875 -3.60937,2.09375 -8.17578,2.09375 l -35.17578,0 z m -58.1875,109.33985 75.38281,0 c 10.26563,0 19.78125,-1.90235 27.19532,-9.31641 4.5625,-4.5664 8.9375,-10.07812 13.12109,-26.05469 5.51563,-20.15625 -0.95312,-28.8789 -14.83203,-32.875 14.83203,-3.23437 25.96875,-10.66796 30.14844,-28.73437 3.42968,-14.45313 2.09765,-23.76563 -3.98438,-29.85156 -4.1875,-4.1836 -10.65234,-6.27735 -23.39062,-6.27735 l -70.55078,0 -33.08985,133.10938"
           id="path43" />
      </g>
      <g
         style="clip-rule:nonzero"
         clip-path="url(#clip3)"
         id="g45">
        <path
           inkscape:connector-curvature="0"
           style="fill:#1e6630;fill-opacity:1;fill-rule:nonzero;stroke:none"
           d="m 342.14844,721.67578 12.76562,-52.39844 46.875,0 5.71485,-23.24609 -46.67969,0 8.3789,-33.53516 62.88282,0 6.09765,-24.19922 -107.40625,0 c -0.082,0.0234 -0.20703,0.0859 -0.2539,0.2461 -0.0547,0.17578 0.0391,0.26953 0.0976,0.3125 0.0156,0.0117 0.0274,0.0195 0.043,0.0273 l 0.004,0.004 c 2.72656,1.80859 9.63672,8.35937 6.6875,27.11719 l -20.01172,80.51562 c -4.48828,15.36719 -11.57813,21.58984 -15.30078,23.89844 0,0 -0.57422,0.34375 -0.35938,0.8164 0.16016,0.35157 0.40235,0.41016 0.51953,0.41797 l 39.94532,0.0234"
           id="path47" />
      </g>
      <g
         style="clip-rule:nonzero"
         clip-path="url(#clip4)"
         id="g49">
        <path
           inkscape:connector-curvature="0"
           style="fill:#1e6630;fill-opacity:1;fill-rule:nonzero;stroke:none"
           d="m 448.47266,594.55859 0.66406,0 c 0.76953,0 1.39453,-0.25781 1.39453,-0.8789 0,-0.55078 -0.40234,-0.92188 -1.28516,-0.92188 -0.36718,0 -0.625,0.0391 -0.77343,0.0781 z m -0.0352,3.41797 -1.39844,0 0,-6.02344 c 0.55078,-0.11328 1.32422,-0.18359 2.31641,-0.18359 1.14062,0 1.65234,0.18359 2.09375,0.44141 0.32812,0.2539 0.58594,0.73047 0.58594,1.32031 0,0.66016 -0.51563,1.17578 -1.2461,1.39453 l 0,0.0742 c 0.58594,0.21875 0.91797,0.66016 1.10156,1.46875 0.1836,0.91797 0.29297,1.28516 0.44141,1.50781 l -1.50781,0 c -0.1836,-0.22265 -0.29297,-0.77344 -0.47656,-1.46875 -0.10938,-0.66406 -0.47657,-0.95703 -1.25,-0.95703 l -0.66016,0 z m -3.71094,-3.16015 c 0,2.67968 1.98438,4.8125 4.70313,4.8125 2.64453,0 4.58984,-2.13282 4.58984,-4.77344 0,-2.6836 -1.94531,-4.85156 -4.62891,-4.85156 -2.67968,0 -4.66406,2.16796 -4.66406,4.8125 z m 10.83594,0 c 0,3.41406 -2.67969,6.09765 -6.17188,6.09765 -3.44921,0 -6.20312,-2.68359 -6.20312,-6.09765 0,-3.33985 2.75391,-6.02344 6.20312,-6.02344 3.49219,0 6.17188,2.68359 6.17188,6.02344"
           id="path51" />
      </g>
      <path
         inkscape:connector-curvature="0"
         style="fill:#211e1e;fill-opacity:1;fill-rule:nonzero;stroke:none"
         d="m 64.910156,823.33203 -3.886718,-11.59375 -0.07422,0 -4.21875,11.59375 z m -9.28125,3.15234 -2.75,7.66407 -3.667968,0 9.902343,-26.33594 4.035157,0 9.535156,26.33594 -3.886719,0 -2.601563,-7.66407 -10.566406,0"
         id="path53" />
      <path
         inkscape:connector-curvature="0"
         style="fill:#211e1e;fill-opacity:1;fill-rule:nonzero;stroke:none"
         d="m 91.167969,834.14844 -3.230469,0 0,-11.8086 c 0,-3.33984 -0.953125,-5.02734 -4.105469,-5.02734 -1.835937,0 -5.0625,1.17578 -5.0625,6.38281 l 0,10.45313 -3.230469,0 0,-19.1836 3.046876,0 0,2.71485 0.07422,0 c 0.695313,-1.02735 2.492188,-3.26563 5.792969,-3.26563 2.972656,0 6.714844,1.21094 6.714844,6.67969 l 0,13.05469"
         id="path55" />
      <path
         inkscape:connector-curvature="0"
         style="fill:#211e1e;fill-opacity:1;fill-rule:nonzero;stroke:none"
         d="m 277.94531,815.73828 c -0.99219,-4.62109 -4.84375,-5.46875 -7.375,-5.46875 -4.76953,0 -8.62109,3.52344 -8.62109,10.45703 0,6.19531 2.20312,10.96485 8.73047,10.96485 2.3125,0 6.30859,-1.09766 7.51953,-7.22657 l 3.44922,0 c -1.46875,9.94141 -9.53907,10.38282 -11.51563,10.38282 -5.98047,0 -11.85156,-3.88672 -11.85156,-14.01172 0,-8.10547 4.62109,-13.71875 12.28906,-13.71875 6.78516,0 10.3086,4.21875 10.82031,8.62109 l -3.44531,0"
         id="path57" />
      <path
         inkscape:connector-curvature="0"
         style="fill:#211e1e;fill-opacity:1;fill-rule:nonzero;stroke:none"
         d="m 292.79297,831.875 c 4.62109,0 5.57422,-4.76563 5.57422,-7.33594 0,-2.5664 -0.95313,-7.33594 -5.57422,-7.33594 -4.6211,0 -5.57422,4.76954 -5.57422,7.33594 0,2.57031 0.95312,7.33594 5.57422,7.33594 z m 0,-17.46094 c 6.125,0 8.91406,5.17188 8.91406,10.125 0,4.95313 -2.78906,10.125 -8.91406,10.125 -6.125,0 -8.91406,-5.17187 -8.91406,-10.125 0,-4.95312 2.78906,-10.125 8.91406,-10.125"
         id="path59" />
      <path
         inkscape:connector-curvature="0"
         style="fill:#211e1e;fill-opacity:1;fill-rule:nonzero;stroke:none"
         d="m 305.37109,814.96484 3.04297,0 0,2.71485 0.0742,0 c 0.69531,-1.02735 2.34766,-3.26563 5.79297,-3.26563 3.44922,0 4.55078,2.09375 5.10156,3.1211 1.61328,-1.79688 2.89844,-3.1211 5.86719,-3.1211 2.05469,0 5.94531,1.06641 5.94531,6.45703 l 0,13.27735 -3.23047,0 0,-12.39453 c 0,-2.64063 -0.80859,-4.44141 -3.55859,-4.44141 -2.71484,0 -4.51172,2.57031 -4.51172,5.13672 l 0,11.69922 -3.22656,0 0,-13.27735 c 0,-1.61328 -0.625,-3.55859 -3.00781,-3.55859 -1.83594,0 -5.0625,1.17578 -5.0625,6.38281 l 0,10.45313 -3.22657,0 0,-19.1836"
         id="path61" />
      <path
         inkscape:connector-curvature="0"
         style="fill:#211e1e;fill-opacity:1;fill-rule:nonzero;stroke:none"
         d="m 343.98828,831.91406 c 3.51953,0 5.17188,-3.1914 5.17188,-7.41015 0,-2.46094 -0.25782,-7.19141 -5.2461,-7.19141 -4.65625,0 -5.17187,5.02734 -5.17187,8.14453 0,5.09766 3.1914,6.45703 5.24609,6.45703 z m -8.32812,-16.94922 3.04687,0 0,2.71485 0.0703,0 c 0.77344,-1.09766 2.23828,-3.26563 5.72266,-3.26563 5.09766,0 7.99609,4.1836 7.99609,9.57422 0,4.58594 -1.90625,10.71094 -8.43359,10.71094 -2.57031,0 -4.25781,-1.20703 -5.10156,-2.56641 l -0.0703,0 0,9.61328 -3.23046,0 0,-26.78125"
         id="path63" />
      <path
         inkscape:connector-curvature="0"
         style="fill:#211e1e;fill-opacity:1;fill-rule:nonzero;stroke:none"
         d="m 368.00781,824.35547 c -0.51172,0.40625 -1.32031,0.69922 -5.3164,1.21094 -1.57813,0.21875 -4.10938,0.69921 -4.10938,3.11718 0,2.09375 1.0625,3.33985 3.48438,3.33985 3.00781,0 5.9414,-1.94532 5.9414,-4.51172 z m -11.8125,-3.5586 c 0.14844,-4.58203 3.19531,-6.38281 7.92578,-6.38281 1.53907,0 7.11328,0.44141 7.11328,5.35547 l 0,11.04297 c 0,0.80859 0.40625,1.13672 1.06641,1.13672 0.29297,0 0.69531,-0.0742 1.0625,-0.14453 l 0,2.34375 c -0.55078,0.14843 -1.02734,0.36718 -1.75781,0.36718 -2.86328,0 -3.30078,-1.46484 -3.41406,-2.93359 -1.2461,1.35938 -3.19141,3.11719 -6.92969,3.11719 -3.52344,0 -6.01953,-2.23828 -6.01953,-5.53906 0,-1.61329 0.48047,-5.35157 5.83203,-6.01563 l 5.32031,-0.66016 c 0.76953,-0.0703 1.6875,-0.36718 1.6875,-2.27343 0,-2.01563 -1.46875,-3.11719 -4.51172,-3.11719 -3.66797,0 -4.17969,2.23828 -4.40234,3.70312 l -2.97266,0"
         id="path65" />
      <path
         inkscape:connector-curvature="0"
         style="fill:#211e1e;fill-opacity:1;fill-rule:nonzero;stroke:none"
         d="m 392.32422,834.14844 -3.22656,0 0,-11.8086 c 0,-3.33984 -0.95704,-5.02734 -4.10938,-5.02734 -1.83594,0 -5.0625,1.17578 -5.0625,6.38281 l 0,10.45313 -3.22656,0 0,-19.1836 3.04297,0 0,2.71485 0.0742,0 c 0.69531,-1.02735 2.49218,-3.26563 5.79296,-3.26563 2.97266,0 6.71485,1.21094 6.71485,6.67969 l 0,13.05469"
         id="path67" />
      <path
         inkscape:connector-curvature="0"
         style="fill:#211e1e;fill-opacity:1;fill-rule:nonzero;stroke:none"
         d="m 408.53125,814.96484 3.55859,0 c -2.23828,6.27344 -4.4375,12.54688 -6.89453,18.82032 -3.04687,7.77343 -3.375,8.21484 -7.51953,8.21484 -0.48047,0 -0.84375,-0.14844 -1.35937,-0.29297 l 0,-2.93359 c 0.40625,0.14453 1.0664,0.32812 1.94531,0.32812 1.6875,0 1.87109,-0.47656 3.41015,-4.4375 l -7.11328,-19.69922 3.66797,0 5.09766,15.62891 0.0742,0 5.13281,-15.62891"
         id="path69" />
      <path
         inkscape:connector-curvature="0"
         style="fill:#211e1e;fill-opacity:1;fill-rule:nonzero;stroke:none"
         d="m 128.87891,822.67187 -7.60157,0 c 1.08594,-1.51562 2.125,-2.97265 2.98829,-4.20703 3.89453,-5.54687 7.3789,-5.01172 7.3789,-5.01172 z m -10.28125,-4.66796 c -4.59375,6.05468 -13.84375,15.82031 -14.35157,16.05859 l 8.8125,0 c 0.0117,-0.0195 2.40625,-3.30469 5.17579,-7.15234 l 9.58984,0 -1.77734,7.15234 5.73437,0 6.41406,-25.80859 -4.39062,0 c -6.08594,0.0117 -9.82813,3.08203 -15.20703,9.75"
         id="path71" />
      <path
         inkscape:connector-curvature="0"
         style="fill:#211e1e;fill-opacity:1;fill-rule:nonzero;stroke:none"
         d="m 154.46484,834.30859 c -1.98047,0 -3.0664,-0.41015 -3.85547,-1.19531 -1.45703,-1.46094 -1.71875,-3.85547 -0.33593,-9.50391 1.34765,-5.53515 2.28515,-7.03125 3.40625,-8.19531 1.38672,-1.3789 2.84375,-1.68359 5.01172,-1.68359 l 5.39062,0 c 2.01953,0 3.10547,0.3789 3.85156,1.16015 1.19922,1.19922 1.27344,2.95704 0.52344,6.39844 l -5.3125,0 c 0.375,-1.87109 0.375,-2.58203 0.0742,-2.84375 -0.22656,-0.26172 -0.59766,-0.29687 -1.53125,-0.29687 l -2.43359,0 c -0.9336,0 -1.3086,0.0742 -1.64844,0.41015 -0.33203,0.375 -0.67188,1.05078 -1.75391,5.46485 -1.05078,4.1875 -1.01172,5.16406 -0.67578,5.53515 0.26172,0.22657 0.67578,0.30078 1.60938,0.30078 l 2.5039,0 c 0.78516,0 1.16406,-0.0391 1.5,-0.375 0.26172,-0.26562 0.59766,-0.82421 1.15625,-3.03125 l 5.31641,0 c -1.01172,4.04297 -1.57031,5.23829 -2.6211,6.28516 -1.12109,1.12109 -2.39453,1.57031 -4.48828,1.57031 l -5.6875,0"
         id="path73" />
      <path
         inkscape:connector-curvature="0"
         style="fill:#211e1e;fill-opacity:1;fill-rule:nonzero;stroke:none"
         d="m 198.51562,822.22656 7.29688,0 c 0.59766,-2.76953 0.63672,-3.6289 0.26172,-4.0039 -0.22266,-0.22657 -0.67188,-0.30079 -1.64453,-0.30079 l -2.58203,0 c -1.16016,0 -1.64844,0.11329 -1.98438,0.41407 -0.29687,0.33593 -0.59766,0.89453 -1.34766,3.89062 z m -1.71875,12.08203 c -2.01953,0 -3.0664,-0.41015 -3.85546,-1.19531 -1.45704,-1.46094 -1.71875,-3.85547 -0.33594,-9.50391 1.34765,-5.53515 2.28515,-7.03125 3.40625,-8.19531 1.38281,-1.3789 2.84375,-1.68359 5.01172,-1.68359 l 5.72656,0 c 2.01953,0 3.06641,0.41406 3.85156,1.19922 1.45703,1.46093 1.60938,3.77734 0.0742,9.57812 -0.14844,0.59766 -0.37109,0.82422 -1.04687,0.82422 l -11.89454,0 c -0.75,3.25391 -0.71484,4.11328 -0.33984,4.45313 0.22266,0.22265 0.67188,0.33593 1.64844,0.33593 l 2.61719,0 c 1.34765,0 1.75781,-0.0391 2.13281,-0.45312 0.26172,-0.25781 0.52344,-0.82031 0.89844,-2.20313 l 5.23437,0 c -0.89453,3.21875 -1.53125,4.375 -2.39453,5.23438 -1.30469,1.27344 -2.58203,1.60937 -4.71094,1.60937 l -6.02344,0"
         id="path75" />
      <path
         inkscape:connector-curvature="0"
         style="fill:#211e1e;fill-opacity:1;fill-rule:nonzero;stroke:none"
         d="m 216.46094,827.49219 c -0.26172,1.12109 -0.47657,2.10547 -0.21485,2.40234 0.1875,0.1875 0.44922,0.26563 1.19532,0.26563 l 4.26953,0 c 0.67187,0 0.97265,-0.0781 1.19531,-0.30079 0.22656,-0.22265 0.44922,-0.52734 0.71094,-1.57421 0.1875,-0.82032 0.1875,-1.15625 -0.0742,-1.38282 -0.14844,-0.1875 -0.41016,-0.29687 -0.89844,-0.375 l -5.53906,-1.12109 c -1.64453,-0.30078 -2.42969,-0.67578 -2.99219,-1.23438 -0.85937,-0.85937 -0.93359,-2.43359 -0.41016,-4.78906 0.5625,-2.50781 1.3086,-3.6289 2.13282,-4.45312 0.89843,-0.85938 2.05859,-1.19922 3.6289,-1.19922 l 7.48438,0 c 1.57031,0 2.54297,0.33984 3.21484,0.97656 0.82422,0.85938 1.04688,2.35547 0.33594,5.42188 l -5.01172,0 c 0.22656,-0.96875 0.33594,-1.64454 0.0391,-1.94532 -0.22656,-0.1875 -0.48828,-0.29687 -1.30859,-0.29687 l -3.51953,0 c -0.67188,0 -1.00781,0.0352 -1.26953,0.29687 -0.19141,0.1875 -0.375,0.48828 -0.60157,1.38672 -0.22265,0.82031 -0.1875,1.19531 0.0352,1.41797 0.19141,0.1875 0.41406,0.30078 0.90234,0.37891 l 5.57422,1.08203 c 1.6836,0.30078 2.4336,0.63672 3.03125,1.23437 0.82032,0.86328 0.9336,2.47266 0.3711,4.86328 -0.5586,2.58594 -1.41797,3.81641 -2.16797,4.56641 -0.9336,0.93359 -2.13281,1.19531 -3.58985,1.19531 l -8.26953,0 c -1.57031,0 -2.50781,-0.33593 -3.14453,-0.97265 -0.78515,-0.78516 -0.94531,-2.70313 -0.0469,-5.84375 l 4.9375,0"
         id="path77" />
      <path
         inkscape:connector-curvature="0"
         style="fill:#211e1e;fill-opacity:1;fill-rule:nonzero;stroke:none"
         d="m 153.39453,813.75781 c -0.0117,-0.0547 -0.0781,-0.0625 -0.0781,-0.0625 l -4.09766,0 c -1.60938,0 -2.80859,0.89844 -5.24219,2.91797 l 0.71485,-2.88281 -5.6875,0 -5.16407,20.57812 5.76172,0 3.55469,-14.10547 c 1.83203,-0.70703 3.03125,-0.89453 4.60156,-0.89453 l 1.92188,0 c 0,0 0.0859,0 0.11328,-0.082 1.02344,-3.60156 2.78515,-4.94531 3.52344,-5.36719 0,0 0.0859,-0.0469 0.0781,-0.10156"
         id="path79" />
      <path
         inkscape:connector-curvature="0"
         style="fill:#211e1e;fill-opacity:1;fill-rule:nonzero;stroke:none"
         d="m 186.71094,815.71875 c -0.45313,1.82812 -0.78907,2.27734 -1.08985,2.57812 -0.33593,0.33594 -0.70703,0.41016 -1.60937,0.41016 l -6.91797,0 1.49609,-5.91016 6.47266,0 c 1.125,0 1.45703,0.15235 1.64844,0.33594 0.29687,0.30078 0.37109,0.90235 0,2.58594 z m -2.39844,10.62109 c -0.52344,2.01953 -0.78516,2.54688 -1.12109,2.87891 -0.33594,0.30469 -0.82422,0.41797 -1.71875,0.41797 l -7.07422,0 1.68359,-6.66016 6.62109,0 c 1.125,0 1.46094,0.10938 1.6836,0.3711 0.375,0.33593 0.41406,1.04687 -0.0742,2.99218 z m 7.82422,-16.98437 c -0.82422,-0.82031 -2.09766,-1.23438 -4.60547,-1.23438 l -13.87891,0 -5.14062,20.6836 c -0.89844,3.53906 -2.26563,4.85937 -2.90625,5.30078 l 0,0.004 c 0,0 -0.082,0.0508 -0.0625,0.125 0.0156,0.0508 0.0742,0.0664 0.10547,0.0742 l 1.49609,0 -0.004,0 15.19141,0 c 2.02344,0 3.89063,-0.37109 5.34766,-1.83203 0.89843,-0.89453 1.76172,-1.98047 2.58593,-5.125 1.08204,-3.96484 -0.1914,-5.64844 -2.92187,-6.4375 l 0,-0.0742 c 2.92187,-0.63672 4.75391,-2.05468 5.57812,-5.60937 0.67188,-2.84375 0.41016,-4.67969 -0.78515,-5.875"
         id="path81" />
      <path
         inkscape:connector-curvature="0"
         style="fill:#211e1e;fill-opacity:1;fill-rule:nonzero;stroke:none"
         d="m 238.65234,818.18359 4.75,0 1.08594,-4.45312 -4.71484,0 1.27343,-5.125 -5.72656,0 -1.30469,5.125 -2.9375,0 c 0,0 -0.0508,0 -0.0625,0.0547 -0.0117,0.0547 0.0469,0.0625 0.0469,0.0625 1,0.29687 2.28516,1.25781 1.82422,4.33593 l 0.004,0 -2.61718,10.47657 c -0.60157,2.5039 -0.41407,3.89062 0.41015,4.71484 0.71094,0.71094 1.6836,1.125 3.28907,1.125 1.27343,0 2.54687,-0.22656 3.55468,-0.48828 l 2.13282,-0.52344 0.9414,-3.66797 -2.77344,0 c -1.08203,0 -1.34765,-0.10937 -1.57031,-0.33594 -0.26172,-0.26562 -0.26172,-0.75 -0.0352,-1.64453 l 2.42968,-9.65625"
         id="path83" />
    </g>
    <g
       transform="matrix(1.25,0,0,1.25,78.130601,-401.57338)"
       id="g3415">
      <path
         inkscape:connector-curvature="0"
         id="path3417"
         d="m 244.14844,810.23828 0.17968,0 c 0.21094,0 0.38282,-0.0703 0.38282,-0.24219 0,-0.14843 -0.10938,-0.25 -0.35157,-0.25 -0.10156,0 -0.17187,0.008 -0.21093,0.0195 z m -0.0117,0.93359 -0.38281,0 0,-1.64843 c 0.15234,-0.0312 0.36328,-0.0508 0.63671,-0.0508 0.3086,0 0.44922,0.0508 0.57032,0.12109 0.0898,0.0703 0.16015,0.19922 0.16015,0.36328 0,0.17969 -0.14062,0.32031 -0.33984,0.38281 l 0,0.0195 c 0.16016,0.0586 0.25,0.17969 0.30078,0.40235 0.0508,0.25 0.082,0.35156 0.12109,0.41015 l -0.41406,0 c -0.0469,-0.0586 -0.0781,-0.21093 -0.1289,-0.40234 -0.0312,-0.17969 -0.13282,-0.26172 -0.34375,-0.26172 l -0.17969,0 z m -1.01563,-0.86328 c 0,0.73438 0.54297,1.31641 1.28516,1.31641 0.72656,0 1.25781,-0.58203 1.25781,-1.30469 0,-0.73828 -0.53125,-1.32812 -1.26562,-1.32812 -0.73438,0 -1.27735,0.58984 -1.27735,1.3164 z m 2.96875,0 c 0,0.9336 -0.73437,1.66797 -1.6914,1.66797 -0.94532,0 -1.69922,-0.73437 -1.69922,-1.66797 0,-0.91406 0.7539,-1.64843 1.69922,-1.64843 0.95703,0 1.6914,0.73437 1.6914,1.64843"
         style="fill:#211e1e;fill-opacity:1;fill-rule:nonzero;stroke:none" />
      <path
         inkscape:connector-curvature="0"
         id="path3419"
         d="m 250.26562,743.47266 -1.99609,7.98437 11.10938,0 -1.35938,5.53125 -11.15625,0 -3.03906,12.47266 -7.39063,0 7.89063,-31.7461 22.35547,0 -1.44922,5.75782 -14.96485,0"
         style="fill:#1e6630;fill-opacity:1;fill-rule:nonzero;stroke:none" />
      <path
         inkscape:connector-curvature="0"
         id="path3421"
         d="m 262.10156,769.46094 6.25781,-24.94532 6.89454,0 -0.86329,3.49219 c 2.94922,-2.44922 4.39844,-3.53515 6.34766,-3.53515 l 2.58594,0 -1.67578,6.80078 -2.67578,0 c -1.90625,0 -3.35547,0.22656 -5.57813,1.08984 l -4.30859,17.09766 -6.98438,0"
         style="fill:#1e6630;fill-opacity:1;fill-rule:nonzero;stroke:none" />
      <path
         inkscape:connector-curvature="0"
         id="path3423"
         d="m 290.76562,754.8125 8.84375,0 c 0.72657,-3.35547 0.76954,-4.39844 0.31641,-4.85156 -0.27344,-0.27344 -0.81641,-0.36328 -1.99609,-0.36328 l -3.12891,0 c -1.40625,0 -1.99609,0.13671 -2.40234,0.49609 -0.36328,0.41016 -0.72657,1.08984 -1.63282,4.71875 z m -2.08593,14.64844 c -2.44922,0 -3.71875,-0.5 -4.67188,-1.45313 -1.76953,-1.76953 -2.08594,-4.67187 -0.40625,-11.51953 1.63281,-6.71094 2.76563,-8.52344 4.125,-9.92969 1.67969,-1.67968 3.44922,-2.04297 6.07813,-2.04297 l 6.9375,0 c 2.44922,0 3.71875,0.5 4.67187,1.45313 1.76953,1.76953 1.94922,4.57812 0.0899,11.60937 -0.1836,0.72657 -0.45313,1 -1.26954,1 l -14.42187,0 c -0.90625,3.94141 -0.86328,4.98438 -0.40625,5.39454 0.26953,0.27343 0.81641,0.40625 1.99609,0.40625 l 3.17188,0 c 1.63281,0 2.13281,-0.043 2.58594,-0.54297 0.3164,-0.31641 0.63671,-0.9961 1.08593,-2.67578 l 6.35157,0 c -1.08985,3.90234 -1.85938,5.30468 -2.90235,6.34765 -1.58594,1.54297 -3.1289,1.95313 -5.71484,1.95313 l -7.30078,0"
         style="fill:#1e6630;fill-opacity:1;fill-rule:nonzero;stroke:none" />
      <path
         inkscape:connector-curvature="0"
         id="path3425"
         d="m 321.96875,741.07031 -7.53125,0 1.5,-5.98437 7.52734,0 z m -7.44141,28.39063 -6.84375,0 6.25782,-24.94532 6.84765,0 -6.26172,24.94532"
         style="fill:#1e6630;fill-opacity:1;fill-rule:nonzero;stroke:none" />
      <path
         inkscape:connector-curvature="0"
         id="path3427"
         d="m 329.72266,761.29687 c 0.36328,0.36329 0.90625,0.54297 1.99609,0.54297 l 1.35937,0 c 1.58594,0 2.40625,-0.45312 4.71875,-1.58593 l 2.26563,-9.11719 c -1.40625,-0.85938 -2.44922,-1.17578 -3.58203,-1.17578 l -1.9961,0 c -1.26953,0 -1.94921,0.13281 -2.53906,0.72265 -0.54297,0.54688 -1.04297,1.54297 -1.99609,5.21485 -0.90625,3.8125 -0.81641,4.85547 -0.22656,5.39843 z m -3.03907,8.52735 c -0.0898,0.67969 -0.0898,1.3125 0.1836,1.58594 0.26953,0.26953 0.67968,0.36328 1.72265,0.36328 l 4.08203,0 c 1.04297,0 1.58594,-0.0937 1.94922,-0.41016 0.40625,-0.36328 0.63672,-0.76953 1.13282,-2.90234 l 1.13281,-4.53516 c -3.94531,2.76563 -4.98828,3.22266 -7.34766,3.22266 l -1.35937,0 c -2.35547,0 -3.53516,-0.5 -4.48828,-1.45313 -1.58594,-1.58594 -1.9961,-4.39844 -0.45313,-10.42969 1.40625,-5.4414 2.53906,-7.39453 3.89844,-8.7539 1.67969,-1.67578 3.67578,-2.03906 6.07812,-2.03906 l 1.85938,0 c 1.76953,0 2.8125,0.58984 5.89453,3.1289 l 0.76953,-3.08594 6.98828,0 -6.07812,24.12891 c -1.04297,4.21484 -1.67969,5.44141 -2.94922,6.52734 -1.17969,1.08985 -2.76563,1.54297 -5.30469,1.54297 l -9.38672,0 c -2.08594,0 -3.22265,-0.40625 -3.99219,-1.17968 -0.99609,-0.95313 -1.26953,-2.53907 -0.58984,-5.71094 l 6.25781,0"
         style="fill:#1e6630;fill-opacity:1;fill-rule:nonzero;stroke:none" />
      <path
         inkscape:connector-curvature="0"
         id="path3429"
         d="m 363.55469,769.46094 4.08203,-16.46485 c 0.3164,-1.17578 0.27344,-1.99218 -0.17969,-2.44922 -0.27344,-0.3164 -0.67969,-0.49609 -1.67969,-0.49609 l -1.26953,0 c -1.3125,0 -2.17578,0.26953 -4.76172,1.44922 l -4.4414,17.96094 -6.98438,0 8.34375,-33.46875 6.98438,0 -2.9961,11.97265 c 4.17188,-3.03906 5.08203,-3.49218 7.39453,-3.49218 l 2.03907,0 c 1.76953,0 3.03906,0.40625 3.99218,1.35937 1.3125,1.31641 1.40625,3.67578 0.54297,7.12109 l -4.1289,16.50782 -6.9375,0"
         style="fill:#1e6630;fill-opacity:1;fill-rule:nonzero;stroke:none" />
      <path
         inkscape:connector-curvature="0"
         id="path3431"
         d="m 386.86719,761.61328 c -0.26953,1.08984 -0.26953,1.67578 0.0469,1.99609 0.26953,0.27344 0.58985,0.41016 1.90235,0.41016 l 3.35546,0 -1.13281,4.44141 -2.58594,0.63672 c -1.22265,0.3164 -2.76562,0.58984 -4.30468,0.58984 -1.95313,0 -3.12891,-0.5 -3.99219,-1.35938 -1,-1 -1.22266,-2.67968 -0.5,-5.71484 l 3.17578,-12.69922 -3.76562,0 1.3164,-5.39844 3.8086,0 1.58593,-6.21093 6.94141,0 -1.54297,6.21093 5.71484,0 -1.3164,5.39844 -5.75781,0 -2.94922,11.69922"
         style="fill:#1e6630;fill-opacity:1;fill-rule:nonzero;stroke:none" />
      <path
         inkscape:connector-curvature="0"
         id="path3433"
         d="m 0,769.48828 218.10937,0 8.15235,-31.71484 -197.734376,0 L 0,769.48828"
         style="fill:#faca05;fill-opacity:1;fill-rule:nonzero;stroke:none" />
      <g
         style="clip-rule:nonzero"
         id="g3435"
         clip-path="url(#clip1)">
        <path
           inkscape:connector-curvature="0"
           id="path3437"
           d="m 167.52734,663 -39.16406,0 c 5.60156,-7.83203 10.94141,-15.33984 15.40625,-21.70313 20.05859,-28.5664 38.01953,-25.82421 38.01953,-25.82421 z m -52.97265,-24.08594 c -23.675784,31.22266 -71.339846,81.53516 -73.968752,82.76172 l 45.429687,0 c 0.05859,-0.0781 12.382813,-17.01172 26.667965,-36.83594 l 49.41797,0 -9.16015,36.83594 29.5625,0 33.05468,-132.98047 -22.63281,0 c -31.35937,0.0312 -50.65234,15.86328 -78.37109,50.21875"
           style="fill:#1e6630;fill-opacity:1;fill-rule:nonzero;stroke:none" />
      </g>
      <g
         style="clip-rule:nonzero"
         id="g3439"
         clip-path="url(#clip2)">
        <path
           inkscape:connector-curvature="0"
           id="path3441"
           d="m 240.30469,663.89453 31.83593,0 c 5.70313,0 7.14454,0.56641 8.55469,1.90234 1.82813,1.82422 2.08985,5.32032 -0.38281,15.21094 -2.66016,10.26953 -3.99219,12.92969 -5.70313,14.64063 -1.71093,1.51953 -4.18359,2.09375 -8.75,2.09375 l -34.11328,0 z m 12.73437,-51.72266 32.89844,0 c 5.70703,0 7.41797,0.75782 8.37109,1.71094 1.51953,1.51953 1.90235,4.5625 0,13.1211 -2.28515,9.3125 -3.99609,11.60156 -5.51953,13.11718 -1.70703,1.71875 -3.60937,2.09375 -8.17578,2.09375 l -35.17578,0 z m -58.1875,109.33985 75.38281,0 c 10.26563,0 19.78125,-1.90235 27.19532,-9.31641 4.5625,-4.5664 8.9375,-10.07812 13.12109,-26.05469 5.51563,-20.15625 -0.95312,-28.8789 -14.83203,-32.875 14.83203,-3.23437 25.96875,-10.66796 30.14844,-28.73437 3.42968,-14.45313 2.09765,-23.76563 -3.98438,-29.85156 -4.1875,-4.1836 -10.65234,-6.27735 -23.39062,-6.27735 l -70.55078,0 -33.08985,133.10938"
           style="fill:#1e6630;fill-opacity:1;fill-rule:nonzero;stroke:none" />
      </g>
      <g
         style="clip-rule:nonzero"
         id="g3443"
         clip-path="url(#clip3)">
        <path
           inkscape:connector-curvature="0"
           id="path3445"
           d="m 342.14844,721.67578 12.76562,-52.39844 46.875,0 5.71485,-23.24609 -46.67969,0 8.3789,-33.53516 62.88282,0 6.09765,-24.19922 -107.40625,0 c -0.082,0.0234 -0.20703,0.0859 -0.2539,0.2461 -0.0547,0.17578 0.0391,0.26953 0.0976,0.3125 0.0156,0.0117 0.0274,0.0195 0.043,0.0273 l 0.004,0.004 c 2.72656,1.80859 9.63672,8.35937 6.6875,27.11719 l -20.01172,80.51562 c -4.48828,15.36719 -11.57813,21.58984 -15.30078,23.89844 0,0 -0.57422,0.34375 -0.35938,0.8164 0.16016,0.35157 0.40235,0.41016 0.51953,0.41797 l 39.94532,0.0234"
           style="fill:#1e6630;fill-opacity:1;fill-rule:nonzero;stroke:none" />
      </g>
      <g
         style="clip-rule:nonzero"
         id="g3447"
         clip-path="url(#clip4)">
        <path
           inkscape:connector-curvature="0"
           id="path3449"
           d="m 448.47266,594.55859 0.66406,0 c 0.76953,0 1.39453,-0.25781 1.39453,-0.8789 0,-0.55078 -0.40234,-0.92188 -1.28516,-0.92188 -0.36718,0 -0.625,0.0391 -0.77343,0.0781 z m -0.0352,3.41797 -1.39844,0 0,-6.02344 c 0.55078,-0.11328 1.32422,-0.18359 2.31641,-0.18359 1.14062,0 1.65234,0.18359 2.09375,0.44141 0.32812,0.2539 0.58594,0.73047 0.58594,1.32031 0,0.66016 -0.51563,1.17578 -1.2461,1.39453 l 0,0.0742 c 0.58594,0.21875 0.91797,0.66016 1.10156,1.46875 0.1836,0.91797 0.29297,1.28516 0.44141,1.50781 l -1.50781,0 c -0.1836,-0.22265 -0.29297,-0.77344 -0.47656,-1.46875 -0.10938,-0.66406 -0.47657,-0.95703 -1.25,-0.95703 l -0.66016,0 z m -3.71094,-3.16015 c 0,2.67968 1.98438,4.8125 4.70313,4.8125 2.64453,0 4.58984,-2.13282 4.58984,-4.77344 0,-2.6836 -1.94531,-4.85156 -4.62891,-4.85156 -2.67968,0 -4.66406,2.16796 -4.66406,4.8125 z m 10.83594,0 c 0,3.41406 -2.67969,6.09765 -6.17188,6.09765 -3.44921,0 -6.20312,-2.68359 -6.20312,-6.09765 0,-3.33985 2.75391,-6.02344 6.20312,-6.02344 3.49219,0 6.17188,2.68359 6.17188,6.02344"
           style="fill:#1e6630;fill-opacity:1;fill-rule:nonzero;stroke:none" />
      </g>
      <path
         inkscape:connector-curvature="0"
         id="path3451"
         d="m 64.910156,823.33203 -3.886718,-11.59375 -0.07422,0 -4.21875,11.59375 z m -9.28125,3.15234 -2.75,7.66407 -3.667968,0 9.902343,-26.33594 4.035157,0 9.535156,26.33594 -3.886719,0 -2.601563,-7.66407 -10.566406,0"
         style="fill:#211e1e;fill-opacity:1;fill-rule:nonzero;stroke:none" />
      <path
         inkscape:connector-curvature="0"
         id="path3453"
         d="m 91.167969,834.14844 -3.230469,0 0,-11.8086 c 0,-3.33984 -0.953125,-5.02734 -4.105469,-5.02734 -1.835937,0 -5.0625,1.17578 -5.0625,6.38281 l 0,10.45313 -3.230469,0 0,-19.1836 3.046876,0 0,2.71485 0.07422,0 c 0.695313,-1.02735 2.492188,-3.26563 5.792969,-3.26563 2.972656,0 6.714844,1.21094 6.714844,6.67969 l 0,13.05469"
         style="fill:#211e1e;fill-opacity:1;fill-rule:nonzero;stroke:none" />
      <path
         inkscape:connector-curvature="0"
         id="path3455"
         d="m 277.94531,815.73828 c -0.99219,-4.62109 -4.84375,-5.46875 -7.375,-5.46875 -4.76953,0 -8.62109,3.52344 -8.62109,10.45703 0,6.19531 2.20312,10.96485 8.73047,10.96485 2.3125,0 6.30859,-1.09766 7.51953,-7.22657 l 3.44922,0 c -1.46875,9.94141 -9.53907,10.38282 -11.51563,10.38282 -5.98047,0 -11.85156,-3.88672 -11.85156,-14.01172 0,-8.10547 4.62109,-13.71875 12.28906,-13.71875 6.78516,0 10.3086,4.21875 10.82031,8.62109 l -3.44531,0"
         style="fill:#211e1e;fill-opacity:1;fill-rule:nonzero;stroke:none" />
      <path
         inkscape:connector-curvature="0"
         id="path3457"
         d="m 292.79297,831.875 c 4.62109,0 5.57422,-4.76563 5.57422,-7.33594 0,-2.5664 -0.95313,-7.33594 -5.57422,-7.33594 -4.6211,0 -5.57422,4.76954 -5.57422,7.33594 0,2.57031 0.95312,7.33594 5.57422,7.33594 z m 0,-17.46094 c 6.125,0 8.91406,5.17188 8.91406,10.125 0,4.95313 -2.78906,10.125 -8.91406,10.125 -6.125,0 -8.91406,-5.17187 -8.91406,-10.125 0,-4.95312 2.78906,-10.125 8.91406,-10.125"
         style="fill:#211e1e;fill-opacity:1;fill-rule:nonzero;stroke:none" />
      <path
         inkscape:connector-curvature="0"
         id="path3459"
         d="m 305.37109,814.96484 3.04297,0 0,2.71485 0.0742,0 c 0.69531,-1.02735 2.34766,-3.26563 5.79297,-3.26563 3.44922,0 4.55078,2.09375 5.10156,3.1211 1.61328,-1.79688 2.89844,-3.1211 5.86719,-3.1211 2.05469,0 5.94531,1.06641 5.94531,6.45703 l 0,13.27735 -3.23047,0 0,-12.39453 c 0,-2.64063 -0.80859,-4.44141 -3.55859,-4.44141 -2.71484,0 -4.51172,2.57031 -4.51172,5.13672 l 0,11.69922 -3.22656,0 0,-13.27735 c 0,-1.61328 -0.625,-3.55859 -3.00781,-3.55859 -1.83594,0 -5.0625,1.17578 -5.0625,6.38281 l 0,10.45313 -3.22657,0 0,-19.1836"
         style="fill:#211e1e;fill-opacity:1;fill-rule:nonzero;stroke:none" />
      <path
         inkscape:connector-curvature="0"
         id="path3461"
         d="m 343.98828,831.91406 c 3.51953,0 5.17188,-3.1914 5.17188,-7.41015 0,-2.46094 -0.25782,-7.19141 -5.2461,-7.19141 -4.65625,0 -5.17187,5.02734 -5.17187,8.14453 0,5.09766 3.1914,6.45703 5.24609,6.45703 z m -8.32812,-16.94922 3.04687,0 0,2.71485 0.0703,0 c 0.77344,-1.09766 2.23828,-3.26563 5.72266,-3.26563 5.09766,0 7.99609,4.1836 7.99609,9.57422 0,4.58594 -1.90625,10.71094 -8.43359,10.71094 -2.57031,0 -4.25781,-1.20703 -5.10156,-2.56641 l -0.0703,0 0,9.61328 -3.23046,0 0,-26.78125"
         style="fill:#211e1e;fill-opacity:1;fill-rule:nonzero;stroke:none" />
      <path
         inkscape:connector-curvature="0"
         id="path3463"
         d="m 368.00781,824.35547 c -0.51172,0.40625 -1.32031,0.69922 -5.3164,1.21094 -1.57813,0.21875 -4.10938,0.69921 -4.10938,3.11718 0,2.09375 1.0625,3.33985 3.48438,3.33985 3.00781,0 5.9414,-1.94532 5.9414,-4.51172 z m -11.8125,-3.5586 c 0.14844,-4.58203 3.19531,-6.38281 7.92578,-6.38281 1.53907,0 7.11328,0.44141 7.11328,5.35547 l 0,11.04297 c 0,0.80859 0.40625,1.13672 1.06641,1.13672 0.29297,0 0.69531,-0.0742 1.0625,-0.14453 l 0,2.34375 c -0.55078,0.14843 -1.02734,0.36718 -1.75781,0.36718 -2.86328,0 -3.30078,-1.46484 -3.41406,-2.93359 -1.2461,1.35938 -3.19141,3.11719 -6.92969,3.11719 -3.52344,0 -6.01953,-2.23828 -6.01953,-5.53906 0,-1.61329 0.48047,-5.35157 5.83203,-6.01563 l 5.32031,-0.66016 c 0.76953,-0.0703 1.6875,-0.36718 1.6875,-2.27343 0,-2.01563 -1.46875,-3.11719 -4.51172,-3.11719 -3.66797,0 -4.17969,2.23828 -4.40234,3.70312 l -2.97266,0"
         style="fill:#211e1e;fill-opacity:1;fill-rule:nonzero;stroke:none" />
      <path
         inkscape:connector-curvature="0"
         id="path3465"
         d="m 392.32422,834.14844 -3.22656,0 0,-11.8086 c 0,-3.33984 -0.95704,-5.02734 -4.10938,-5.02734 -1.83594,0 -5.0625,1.17578 -5.0625,6.38281 l 0,10.45313 -3.22656,0 0,-19.1836 3.04297,0 0,2.71485 0.0742,0 c 0.69531,-1.02735 2.49218,-3.26563 5.79296,-3.26563 2.97266,0 6.71485,1.21094 6.71485,6.67969 l 0,13.05469"
         style="fill:#211e1e;fill-opacity:1;fill-rule:nonzero;stroke:none" />
      <path
         inkscape:connector-curvature="0"
         id="path3467"
         d="m 408.53125,814.96484 3.55859,0 c -2.23828,6.27344 -4.4375,12.54688 -6.89453,18.82032 -3.04687,7.77343 -3.375,8.21484 -7.51953,8.21484 -0.48047,0 -0.84375,-0.14844 -1.35937,-0.29297 l 0,-2.93359 c 0.40625,0.14453 1.0664,0.32812 1.94531,0.32812 1.6875,0 1.87109,-0.47656 3.41015,-4.4375 l -7.11328,-19.69922 3.66797,0 5.09766,15.62891 0.0742,0 5.13281,-15.62891"
         style="fill:#211e1e;fill-opacity:1;fill-rule:nonzero;stroke:none" />
      <path
         inkscape:connector-curvature="0"
         id="path3469"
         d="m 128.87891,822.67187 -7.60157,0 c 1.08594,-1.51562 2.125,-2.97265 2.98829,-4.20703 3.89453,-5.54687 7.3789,-5.01172 7.3789,-5.01172 z m -10.28125,-4.66796 c -4.59375,6.05468 -13.84375,15.82031 -14.35157,16.05859 l 8.8125,0 c 0.0117,-0.0195 2.40625,-3.30469 5.17579,-7.15234 l 9.58984,0 -1.77734,7.15234 5.73437,0 6.41406,-25.80859 -4.39062,0 c -6.08594,0.0117 -9.82813,3.08203 -15.20703,9.75"
         style="fill:#211e1e;fill-opacity:1;fill-rule:nonzero;stroke:none" />
      <path
         inkscape:connector-curvature="0"
         id="path3471"
         d="m 154.46484,834.30859 c -1.98047,0 -3.0664,-0.41015 -3.85547,-1.19531 -1.45703,-1.46094 -1.71875,-3.85547 -0.33593,-9.50391 1.34765,-5.53515 2.28515,-7.03125 3.40625,-8.19531 1.38672,-1.3789 2.84375,-1.68359 5.01172,-1.68359 l 5.39062,0 c 2.01953,0 3.10547,0.3789 3.85156,1.16015 1.19922,1.19922 1.27344,2.95704 0.52344,6.39844 l -5.3125,0 c 0.375,-1.87109 0.375,-2.58203 0.0742,-2.84375 -0.22656,-0.26172 -0.59766,-0.29687 -1.53125,-0.29687 l -2.43359,0 c -0.9336,0 -1.3086,0.0742 -1.64844,0.41015 -0.33203,0.375 -0.67188,1.05078 -1.75391,5.46485 -1.05078,4.1875 -1.01172,5.16406 -0.67578,5.53515 0.26172,0.22657 0.67578,0.30078 1.60938,0.30078 l 2.5039,0 c 0.78516,0 1.16406,-0.0391 1.5,-0.375 0.26172,-0.26562 0.59766,-0.82421 1.15625,-3.03125 l 5.31641,0 c -1.01172,4.04297 -1.57031,5.23829 -2.6211,6.28516 -1.12109,1.12109 -2.39453,1.57031 -4.48828,1.57031 l -5.6875,0"
         style="fill:#211e1e;fill-opacity:1;fill-rule:nonzero;stroke:none" />
      <path
         inkscape:connector-curvature="0"
         id="path3473"
         d="m 198.51562,822.22656 7.29688,0 c 0.59766,-2.76953 0.63672,-3.6289 0.26172,-4.0039 -0.22266,-0.22657 -0.67188,-0.30079 -1.64453,-0.30079 l -2.58203,0 c -1.16016,0 -1.64844,0.11329 -1.98438,0.41407 -0.29687,0.33593 -0.59766,0.89453 -1.34766,3.89062 z m -1.71875,12.08203 c -2.01953,0 -3.0664,-0.41015 -3.85546,-1.19531 -1.45704,-1.46094 -1.71875,-3.85547 -0.33594,-9.50391 1.34765,-5.53515 2.28515,-7.03125 3.40625,-8.19531 1.38281,-1.3789 2.84375,-1.68359 5.01172,-1.68359 l 5.72656,0 c 2.01953,0 3.06641,0.41406 3.85156,1.19922 1.45703,1.46093 1.60938,3.77734 0.0742,9.57812 -0.14844,0.59766 -0.37109,0.82422 -1.04687,0.82422 l -11.89454,0 c -0.75,3.25391 -0.71484,4.11328 -0.33984,4.45313 0.22266,0.22265 0.67188,0.33593 1.64844,0.33593 l 2.61719,0 c 1.34765,0 1.75781,-0.0391 2.13281,-0.45312 0.26172,-0.25781 0.52344,-0.82031 0.89844,-2.20313 l 5.23437,0 c -0.89453,3.21875 -1.53125,4.375 -2.39453,5.23438 -1.30469,1.27344 -2.58203,1.60937 -4.71094,1.60937 l -6.02344,0"
         style="fill:#211e1e;fill-opacity:1;fill-rule:nonzero;stroke:none" />
      <path
         inkscape:connector-curvature="0"
         id="path3475"
         d="m 216.46094,827.49219 c -0.26172,1.12109 -0.47657,2.10547 -0.21485,2.40234 0.1875,0.1875 0.44922,0.26563 1.19532,0.26563 l 4.26953,0 c 0.67187,0 0.97265,-0.0781 1.19531,-0.30079 0.22656,-0.22265 0.44922,-0.52734 0.71094,-1.57421 0.1875,-0.82032 0.1875,-1.15625 -0.0742,-1.38282 -0.14844,-0.1875 -0.41016,-0.29687 -0.89844,-0.375 l -5.53906,-1.12109 c -1.64453,-0.30078 -2.42969,-0.67578 -2.99219,-1.23438 -0.85937,-0.85937 -0.93359,-2.43359 -0.41016,-4.78906 0.5625,-2.50781 1.3086,-3.6289 2.13282,-4.45312 0.89843,-0.85938 2.05859,-1.19922 3.6289,-1.19922 l 7.48438,0 c 1.57031,0 2.54297,0.33984 3.21484,0.97656 0.82422,0.85938 1.04688,2.35547 0.33594,5.42188 l -5.01172,0 c 0.22656,-0.96875 0.33594,-1.64454 0.0391,-1.94532 -0.22656,-0.1875 -0.48828,-0.29687 -1.30859,-0.29687 l -3.51953,0 c -0.67188,0 -1.00781,0.0352 -1.26953,0.29687 -0.19141,0.1875 -0.375,0.48828 -0.60157,1.38672 -0.22265,0.82031 -0.1875,1.19531 0.0352,1.41797 0.19141,0.1875 0.41406,0.30078 0.90234,0.37891 l 5.57422,1.08203 c 1.6836,0.30078 2.4336,0.63672 3.03125,1.23437 0.82032,0.86328 0.9336,2.47266 0.3711,4.86328 -0.5586,2.58594 -1.41797,3.81641 -2.16797,4.56641 -0.9336,0.93359 -2.13281,1.19531 -3.58985,1.19531 l -8.26953,0 c -1.57031,0 -2.50781,-0.33593 -3.14453,-0.97265 -0.78515,-0.78516 -0.94531,-2.70313 -0.0469,-5.84375 l 4.9375,0"
         style="fill:#211e1e;fill-opacity:1;fill-rule:nonzero;stroke:none" />
      <path
         inkscape:connector-curvature="0"
         id="path3477"
         d="m 153.39453,813.75781 c -0.0117,-0.0547 -0.0781,-0.0625 -0.0781,-0.0625 l -4.09766,0 c -1.60938,0 -2.80859,0.89844 -5.24219,2.91797 l 0.71485,-2.88281 -5.6875,0 -5.16407,20.57812 5.76172,0 3.55469,-14.10547 c 1.83203,-0.70703 3.03125,-0.89453 4.60156,-0.89453 l 1.92188,0 c 0,0 0.0859,0 0.11328,-0.082 1.02344,-3.60156 2.78515,-4.94531 3.52344,-5.36719 0,0 0.0859,-0.0469 0.0781,-0.10156"
         style="fill:#211e1e;fill-opacity:1;fill-rule:nonzero;stroke:none" />
      <path
         inkscape:connector-curvature="0"
         id="path3479"
         d="m 186.71094,815.71875 c -0.45313,1.82812 -0.78907,2.27734 -1.08985,2.57812 -0.33593,0.33594 -0.70703,0.41016 -1.60937,0.41016 l -6.91797,0 1.49609,-5.91016 6.47266,0 c 1.125,0 1.45703,0.15235 1.64844,0.33594 0.29687,0.30078 0.37109,0.90235 0,2.58594 z m -2.39844,10.62109 c -0.52344,2.01953 -0.78516,2.54688 -1.12109,2.87891 -0.33594,0.30469 -0.82422,0.41797 -1.71875,0.41797 l -7.07422,0 1.68359,-6.66016 6.62109,0 c 1.125,0 1.46094,0.10938 1.6836,0.3711 0.375,0.33593 0.41406,1.04687 -0.0742,2.99218 z m 7.82422,-16.98437 c -0.82422,-0.82031 -2.09766,-1.23438 -4.60547,-1.23438 l -13.87891,0 -5.14062,20.6836 c -0.89844,3.53906 -2.26563,4.85937 -2.90625,5.30078 l 0,0.004 c 0,0 -0.082,0.0508 -0.0625,0.125 0.0156,0.0508 0.0742,0.0664 0.10547,0.0742 l 1.49609,0 -0.004,0 15.19141,0 c 2.02344,0 3.89063,-0.37109 5.34766,-1.83203 0.89843,-0.89453 1.76172,-1.98047 2.58593,-5.125 1.08204,-3.96484 -0.1914,-5.64844 -2.92187,-6.4375 l 0,-0.0742 c 2.92187,-0.63672 4.75391,-2.05468 5.57812,-5.60937 0.67188,-2.84375 0.41016,-4.67969 -0.78515,-5.875"
         style="fill:#211e1e;fill-opacity:1;fill-rule:nonzero;stroke:none" />
      <path
         inkscape:connector-curvature="0"
         id="path3481"
         d="m 238.65234,818.18359 4.75,0 1.08594,-4.45312 -4.71484,0 1.27343,-5.125 -5.72656,0 -1.30469,5.125 -2.9375,0 c 0,0 -0.0508,0 -0.0625,0.0547 -0.0117,0.0547 0.0469,0.0625 0.0469,0.0625 1,0.29687 2.28516,1.25781 1.82422,4.33593 l 0.004,0 -2.61718,10.47657 c -0.60157,2.5039 -0.41407,3.89062 0.41015,4.71484 0.71094,0.71094 1.6836,1.125 3.28907,1.125 1.27343,0 2.54687,-0.22656 3.55468,-0.48828 l 2.13282,-0.52344 0.9414,-3.66797 -2.77344,0 c -1.08203,0 -1.34765,-0.10937 -1.57031,-0.33594 -0.26172,-0.26562 -0.26172,-0.75 -0.0352,-1.64453 l 2.42968,-9.65625"
         style="fill:#211e1e;fill-opacity:1;fill-rule:nonzero;stroke:none" />
    </g>
  </g>
</svg>
