<svg enable-background="new 0 0 300 68" height="68" viewBox="0 0 300 68" width="300" xmlns="http://www.w3.org/2000/svg" xmlns:xlink="http://www.w3.org/1999/xlink"><clipPath id="a"><path d="m0 0h299.991v68h-299.991z"/></clipPath><g clip-rule="evenodd" fill-rule="evenodd"><path clip-path="url(#a)" d="m300 68v-33.178h-300v33.178zm0-34.961v-33.039h-300v33.039z" fill="#004890"/><path clip-path="url(#a)" d="m149.997 5.724c-15.739 0-28.466 12.673-28.466 28.343 0 15.673 12.727 28.345 28.466 28.345 15.74 0 28.604-12.672 28.604-28.345 0-15.671-12.864-28.343-28.604-28.343" fill="#d11c00"/><g fill="#fff"><path clip-path="url(#a)" d="m141.375 37.882 2.054-2.042 23.402-1.092.957-.956h-22.853l-12.591-14.579 41.742 13.899-13.824 13.904h-27.918l2.737-2.865 23.401-1.091.958-.952h-22.17l2.052-2.047 23.266-1.088 1.094-1.091z"/><path clip-path="url(#a)" d="m190.373 11.176h3.147c2.735 0 5.198.816 5.198 3.812 0 2.862-2.051 3.954-4.788 3.954h-1.095v4.768h-2.463v-12.534m2.464 5.857h.957c1.233 0 2.328-.409 2.328-1.907 0-1.361-1.095-1.907-2.328-1.907h-.957z"/><path clip-path="url(#a)" d="m210.492 11.035c3.967 0 6.153 2.593 6.153 6.404 0 3.819-2.187 6.408-6.153 6.408-3.971 0-6.023-2.589-6.023-6.408 0-3.811 2.052-6.404 6.023-6.404m0 10.905c2.6 0 3.555-2.318 3.555-4.501 0-2.179-1.094-4.496-3.555-4.496-2.465 0-3.424 2.317-3.424 4.496 0 2.183.959 4.501 3.424 4.501z"/><path clip-path="url(#a)" d="m230.195 13.489c-.82-.271-1.781-.546-2.601-.546s-1.914.41-1.914 1.772c0 2.183 5.476 1.227 5.476 5.453 0 2.725-2.188 3.679-4.793 3.679-1.367 0-1.91-.139-3.146-.409l.275-2.318c.82.545 1.78.82 2.741.82.953 0 2.322-.545 2.322-1.637 0-2.317-5.475-1.362-5.475-5.453 0-2.858 2.055-3.815 4.239-3.815 1.094 0 2.192.141 3.016.411z"/><path clip-path="url(#a)" d="m240.191 13.219h-3.561v-2.043h9.582v2.043h-3.558v10.49h-2.463z"/><path clip-path="url(#a)" d="m252.37 11.176h7.388v2.043h-4.923v2.998h4.515v2.043h-4.515v3.405h4.923v2.044h-7.388z"/><path clip-path="url(#a)" d="m273.449 13.489c-.688-.271-1.648-.546-2.468-.546-.955 0-2.052.41-2.052 1.772 0 2.183 5.476 1.227 5.476 5.453 0 2.725-2.052 3.679-4.656 3.679-1.367 0-1.912-.139-3.148-.409l.141-2.318c.956.545 1.912.82 2.877.82.954 0 2.183-.545 2.183-1.637 0-2.317-5.472-1.362-5.472-5.453 0-2.858 2.192-3.815 4.376-3.815 1.096 0 2.057.141 3.016.411z"/><path clip-path="url(#a)" d="m199.952 57.779c-.821.136-1.778.271-2.735.271-4.107 0-6.98-1.907-6.98-6.134 0-4.36 2.737-6.678 6.98-6.678.82 0 1.914.138 2.735.544l-.136 2.049c-.958-.547-1.779-.682-2.737-.682-2.6 0-4.105 2.043-4.105 4.496 0 2.59 1.506 4.497 4.243 4.497.957 0 2.053-.275 2.735-.546z"/><path clip-path="url(#a)" d="m209.946 45.377h2.734l4.926 12.538h-2.738l-1.093-2.863h-5.065l-1.095 2.863h-2.601zm1.363 2.59-1.914 5.178h3.697z"/><path clip-path="url(#a)" d="m223.628 45.377h3.147l4.657 9.404h.135v-9.404h2.329v12.538h-3.016l-4.787-9.267v9.267h-2.465z"/><path clip-path="url(#a)" d="m244.707 45.377h2.872l4.926 12.538h-2.735l-1.096-2.863h-5.063l-1.096 2.863h-2.601zm1.366 2.59-1.779 5.178h3.697z"/><path clip-path="url(#a)" d="m258.525 45.377h3.425c3.968 0 7.251 1.363 7.251 6.27 0 4.901-3.283 6.269-7.251 6.269h-3.425zm2.604 10.491h1.369c2.051 0 4.103-1.498 4.103-4.222s-2.052-4.227-4.103-4.227h-1.369z"/><path clip-path="url(#a)" d="m279.605 45.377h2.874l4.928 12.538h-2.874l-1.097-2.863h-5.065l-1.094 2.863h-2.601zm1.367 2.59-1.779 5.178h3.56z"/><path clip-path="url(#a)" d="m23.129 23.572c-.956.137-1.916.275-2.874.275-3.968 0-6.842-1.907-6.842-6.133 0-4.361 2.6-6.68 6.842-6.68.822 0 1.918.141 2.874.546l-.137 2.047c-.957-.548-1.915-.685-2.737-.685-2.601 0-4.242 2.044-4.242 4.496 0 2.593 1.642 4.501 4.242 4.501.958 0 2.191-.275 2.737-.545z"/><path clip-path="url(#a)" d="m32.984 11.176h2.872l4.926 12.533h-2.733l-1.098-2.86h-5.063l-1.094 2.86h-2.6zm1.506 2.589h-.14l-1.776 5.177h3.694z"/><path clip-path="url(#a)" d="m46.806 11.176h3.01l4.792 9.397v-9.397h2.461v12.533h-3.147l-4.79-9.265v9.265h-2.326z"/><path clip-path="url(#a)" d="m67.884 11.176h2.873l4.926 12.533h-2.873l-1.095-2.86h-5.065l-1.095 2.86h-2.6zm1.367 2.589-1.781 5.177h3.562z"/><path clip-path="url(#a)" d="m81.704 11.176h3.422c3.835 0 7.255 1.357 7.255 6.264s-3.42 6.27-7.255 6.27h-3.422zm2.465 10.489h1.506c2.053 0 4.106-1.496 4.106-4.226 0-2.724-2.054-4.221-4.106-4.221h-1.506z"/><path clip-path="url(#a)" d="m102.781 11.176h2.737l4.928 12.533h-2.737l-1.095-2.86h-5.064l-1.094 2.86h-2.601zm1.369 2.589h-.138l-1.78 5.177h3.696z"/><path clip-path="url(#a)" d="m13.823 45.377h3.147c2.738 0 5.202.817 5.202 3.816 0 2.864-2.055 3.951-4.791 3.951h-1.095v4.771h-2.464v-12.538m2.465 5.86h.958c1.231 0 2.326-.412 2.326-1.907 0-1.363-1.095-1.91-2.326-1.91h-.958z"/><path clip-path="url(#a)" d="m33.942 45.239c3.969 0 6.158 2.593 6.158 6.407 0 3.815-2.189 6.404-6.158 6.404-3.97 0-6.022-2.589-6.022-6.404 0-3.814 2.053-6.407 6.022-6.407m0 10.905c2.601 0 3.558-2.319 3.558-4.497 0-2.183-.957-4.496-3.558-4.496-2.464 0-3.423 2.313-3.423 4.496.001 2.177.96 4.497 3.423 4.497z"/><path clip-path="url(#a)" d="m53.649 47.691c-.821-.271-1.643-.541-2.6-.541-.82 0-1.918.406-1.918 1.772 0 2.179 5.477 1.223 5.477 5.447 0 2.729-2.19 3.681-4.653 3.681-1.37 0-2.055-.136-3.286-.411l.274-2.313c.821.541 1.78.816 2.737.816s2.326-.546 2.326-1.634c0-2.317-5.475-1.365-5.475-5.452 0-2.863 2.191-3.818 4.38-3.818.957 0 2.052.138 2.875.41z"/><path clip-path="url(#a)" d="m63.639 47.42h-3.558v-2.043h9.581v2.043h-3.558v10.495h-2.465z"/></g></g></svg>