<svg enable-background="new 0 0 566.928 125.115" height="125.115" viewBox="0 0 566.928 125.115" width="566.928" xmlns="http://www.w3.org/2000/svg"><path d="m566.928 0v125.115h-566.928v-125.115z" fill="#fc0"/><g fill="#d40511"><path d="m99.698 22.468-18.113 24.609h98.717c4.99 0 4.924 1.896 2.486 5.2-2.477 3.355-6.622 9.188-9.145 12.593-1.28 1.729-3.595 4.879 4.076 4.879h40.37s6.507-8.854 11.961-16.257c7.421-10.069.643-31.024-25.884-31.024-23.744 0-104.468 0-104.468 0z"/><path d="m74.256 102.64 36.381-49.434h45.147c4.99 0 4.924 1.896 2.486 5.2-2.477 3.355-6.691 9.125-9.213 12.533-1.281 1.729-3.595 4.884 4.075 4.884h60.482c-5.029 6.891-21.345 26.816-50.643 26.816-23.744.001-88.715.001-88.715.001z"/><path d="m282.612 75.817-19.729 26.822h-52.042s19.718-26.816 19.735-26.816z"/><path d="m362.34 69.749h-127.293l34.809-47.281h52.027l-19.951 27.112h23.224l19.959-27.112h52.022z"/><path d="m357.871 75.823-19.738 26.816h-52.023s19.719-26.816 19.736-26.816z"/><path d="m0 86.397h76.666l-4.188 5.699h-72.478z"/><path d="m0 75.823h84.455l-4.196 5.69h-80.259z"/><path d="m0 96.979h68.881l-4.168 5.661h-64.713z"/><path d="m566.93 92.096h-76.373l4.191-5.698h72.182z"/><path d="m566.93 102.64-84.137.006 4.168-5.667h79.969z"/><path d="m502.527 75.823h64.403v5.693l-68.588.004z"/><path d="m469.189 22.468-34.805 47.281h-55.127s34.811-47.281 34.828-47.281z"/><path d="m374.795 75.823s-3.803 5.197-5.65 7.695c-6.535 8.831-.758 19.121 20.568 19.121h83.553l19.736-26.816z"/></g></svg>