<svg xmlns="http://www.w3.org/2000/svg" width="354.641" height="98.25"><path d="M352.457 85.495c0-5.455-3.872-9.457-9.214-9.457-5.333 0-9.213 4.002-9.213 9.457 0 5.456 3.88 9.453 9.213 9.453 5.342 0 9.214-3.997 9.214-9.453zm-11.632.482v6.187h-2.001V78.52h4.967c2.906 0 4.246 1.276 4.246 3.759 0 1.52-1.035 2.732-2.366 2.906v.066c1.148.182 1.574 1.213 1.818 3.092.182 1.21.426 3.332.853 3.82h-2.367c-.548-1.274-.487-3.093-.913-4.606-.357-1.154-.966-1.58-2.297-1.58h-1.94zm2.479-1.757c1.94 0 2.488-1.03 2.488-1.94 0-1.088-.548-1.935-2.488-1.935h-2.48v3.875h2.48zm-11.458 1.275c0-6.73 5.342-11.275 11.397-11.275 6.064 0 11.398 4.545 11.398 11.275s-5.334 11.276-11.398 11.276c-6.055 0-11.397-4.546-11.397-11.276m-39.492 9.313l-13.14-14.738-13.021 14.738H238.8l26.78-30.089-26.78-30.095h28.254l13.265 14.617 12.772-14.617h27.27l-26.653 29.971 27.019 30.213h-28.373" fill="#adabab"/><path d="M186.175 94.808V0H238.8v21.134h-30.335v13.49H238.8v20.333h-30.335v18.662H238.8v21.19h-52.625" fill="#adabab"/><path d="M163.977 0v38.8h-.244c-4.916-5.648-11.056-7.612-18.18-7.612-14.594 0-25.588 9.922-29.446 23.038-4.402-14.451-15.753-23.308-32.581-23.308-13.668 0-24.459 6.134-30.093 16.13V34.625h-28.25v-13.49h30.83V0H0v94.808h25.183V54.957h25.1c-.748 2.927-1.148 6.063-1.148 9.37 0 19.776 15.109 33.653 34.39 33.653 16.213 0 26.9-7.612 32.55-21.49h-21.58c-2.92 4.172-5.133 5.407-10.97 5.407-6.766 0-12.603-5.902-12.603-12.903h43.944c1.906 15.71 14.144 29.256 30.935 29.256 7.243 0 13.877-3.562 17.932-9.579h.244v6.137h22.198V0h-22.198zM71.624 55.239c1.4-6.02 6.07-9.957 11.902-9.957 6.419 0 10.851 3.814 12.017 9.957h-23.92zm78.88 25.135c-8.182 0-13.269-7.624-13.269-15.585 0-8.51 4.425-16.693 13.268-16.693 9.172 0 12.825 8.183 12.825 16.693 0 8.068-3.872 15.585-12.825 15.585" fill="#412c91"/></svg>