<?xml version="1.0" encoding="utf-8"?>
<!-- Generator: Adobe Illustrator 19.0.0, SVG Export Plug-In . SVG Version: 6.00 Build 0)  -->
<svg version="1.1" id="Layer_1" xmlns="http://www.w3.org/2000/svg" xmlns:xlink="http://www.w3.org/1999/xlink" x="0px" y="0px"
	 viewBox="397 226 110 110" style="enable-background:new 397 226 110 110;" xml:space="preserve">
<style type="text/css">
	.st0{stroke:#000000;stroke-width:4;stroke-miterlimit:10;}
	.st1{fill:none;stroke:#000000;stroke-width:5;stroke-miterlimit:10;}
</style>
<g>
	<g>
		<path class="st0" d="M446.3,290.5l-0.2-2.4c-0.6-5,1.1-10.5,5.8-16.1c4.2-4.9,6.5-8.6,6.5-12.7c0-4.7-3-7.9-8.8-8
			c-3.3,0-7.1,1.1-9.4,2.9l-2.2-5.9c3.1-2.2,8.4-3.7,13.3-3.7c10.7,0,15.5,6.6,15.5,13.7c0,6.3-3.5,10.9-8,16.2
			c-4.1,4.8-5.6,8.9-5.3,13.7l0.1,2.4H446.3z M444.2,303.5c0-3.4,2.3-5.9,5.6-5.9s5.5,2.4,5.5,5.9c0,3.3-2.1,5.8-5.6,5.8
			C446.4,309.3,444.2,306.8,444.2,303.5z"/>
	</g>
	<circle class="st1" cx="452" cy="281" r="49"/>
</g>
</svg>
