<svg enable-background="new 12.635 15.368 227.305 279.443" height="279.443" viewBox="12.635 15.368 227.305 279.443" width="227.305" xmlns="http://www.w3.org/2000/svg" xmlns:xlink="http://www.w3.org/1999/xlink"><clipPath id="a"><path d="m239.938 40.271c-23.854-13.176-50.916-19.393-72.649-22.319-23.731-3.188-41.101-2.46-41.015-2.584.052.066-4.582-.098-12.35.167-7.924.276-19.114.996-31.938 2.876-10.113 1.486-21.236 3.689-32.576 6.951-12.352 3.559-24.952 8.381-36.775 14.909v27.496 10.478 20.082 76.636c.007 27.271 9.397 51.235 29.949 68.317 4.658 3.938 11.807 8.437 20.016 13.004 6.962 3.865 14.69 7.783 22.284 11.466 8.957 4.333 17.735 8.315 24.884 11.476 9.811 4.334 16.56 7.106 16.505 7.053-.082.072 14.932-6.104 32.683-14.389 18.897-8.828 40.882-20.027 51.021-28.607 20.562-17.081 29.963-41.049 29.963-68.326 0-25.535 0-51.083 0-76.627 0-7.529 0-13.387 0-20.915 0-2.659 0-6.985 0-9.645-.002-9.168-.002-18.335-.002-27.499"/></clipPath><clipPath id="b"><path d="m231.023 42.028c-33.25-3.497-69.892-4.414-106.362 2.855-10.585 2.128-21.157 4.938-31.589 8.591-11.147 3.908-22.126 8.768-32.784 14.768-13.627 7.675-26.713 17.214-38.925 28.978-.002 2.517-.009 5.033-.016 7.547-.018 12.074-.029 24.159-.034 36.245-.009 11.342 0 22.69.009 34.039.018 25.302 9.11 46.589 26.897 61.366 10.938 5.661 21.878 11.326 32.822 16.991 8.355 4.333 16.716 8.655 25.074 12.987 6.721 3.477 13.441 6.953 20.162 10.44 13.396-5.584 62.211-27.024 78.067-40.421 17.791-14.777 26.872-36.064 26.892-61.366.027-24.387.015-48.788-.026-73.15-.036-16.551-.081-33.086-.146-49.569-.017-3.432-.026-6.868-.041-10.301"/></clipPath><clipPath id="c"><path d="m203.863 171.455c-.137-6.379-3.637-9.826-12.446-15.056-16.59-9.84-19.651-17.99-19.698-28.862-.1-16.492 13.815-26.019 26.928-26.266 10.97-.21 18.303 4.056 21.758 6.807.019 5.839.031 11.689.035 17.535-4.088-4.346-10.729-8.328-17.7-8.452-5.655-.106-11.564 2.388-11.745 9.625-.163 7.391 5.771 10.341 13.165 14.794 16.599 10.014 19.61 18.858 19.291 30.624-.427 12.895-8.999 27.08-28.778 27.297-7.925.081-15.795-2.367-22.119-6.107.026-6.248.047-12.506.055-18.785 5.179 4.652 12.881 8.203 19.272 8.203 7.334-.002 12.14-4.309 11.982-11.357m-82.355-52.703c1.653-.802 4.486-1.461 7.242-1.461 11.877 0 16.811 9.479 16.829 32.435-.011 22.381-5.652 33.17-17.435 33.17-2.752 0-5.166-.688-6.639-1.238-.002-20.925 0-41.984.003-62.906zm.04 121.993c-.009-13.979-.024-28.143-.026-42.409 2.027.597 5.02 1.14 9.207 1.134 22.645-.021 35.694-20.41 35.694-50.287-.014-29.795-13.432-48.272-37.823-48.288-11.118 0-20.116 2.472-27.493 7.283-.102 44.203-.041 89.246.176 132.508 6.75.038 13.509.054 20.265.059zm-60.003-58.43c4.086.026 7.346-.895 9.528-2.402-.072-25.562-.05-51.282.075-76.747 6.711-.057 13.458-.103 20.222-.131-.099 29.363-.106 59.116-.018 88.542-7.762 5.27-18.146 8.068-30.43 7.955-19.836-.202-29.567-11.182-29.605-32.522 0-21.145.002-42.319.002-63.419 6.535-.093 13.143-.165 19.791-.239-.102 21.469-.138 43.086-.102 64.648.017 5.728 1.372 14.253 10.537 14.315z"/></clipPath><path clip-path="url(#a)" d="m9 13h235.5v273h-235.5z" fill="#feb302"/><path clip-path="url(#b)" d="m20 36.5h215v242.5h-215z" fill="#351c15"/><g fill="#feb302"><path clip-path="url(#c)" d="m203.863 171.455c-.137-6.379-3.637-9.826-12.446-15.056-16.59-9.84-19.651-17.99-19.698-28.862-.1-16.492 13.815-26.019 26.928-26.266 10.97-.21 18.303 4.056 21.758 6.807.019 5.839.031 11.689.035 17.535-4.088-4.346-10.729-8.328-17.7-8.452-5.655-.106-11.564 2.388-11.745 9.625-.163 7.391 5.771 10.341 13.165 14.794 16.599 10.014 19.61 18.858 19.291 30.624-.427 12.895-8.999 27.08-28.778 27.297-7.925.081-15.795-2.367-22.119-6.107.026-6.248.047-12.506.055-18.785 5.179 4.652 12.881 8.203 19.272 8.203 7.334-.002 12.14-4.309 11.982-11.357m-82.355-52.703c1.653-.802 4.486-1.461 7.242-1.461 11.877 0 16.811 9.479 16.829 32.435-.011 22.381-5.652 33.17-17.435 33.17-2.752 0-5.166-.688-6.639-1.238-.002-20.925 0-41.984.003-62.906zm.04 121.993c-.009-13.979-.024-28.143-.026-42.409 2.027.597 5.02 1.14 9.207 1.134 22.645-.021 35.694-20.41 35.694-50.287-.014-29.795-13.432-48.272-37.823-48.288-11.118 0-20.116 2.472-27.493 7.283-.102 44.203-.041 89.246.176 132.508 6.75.038 13.509.054 20.265.059zm-60.003-58.43c4.086.026 7.346-.895 9.528-2.402-.072-25.562-.05-51.282.075-76.747 6.711-.057 13.458-.103 20.222-.131-.099 29.363-.106 59.116-.018 88.542-7.762 5.27-18.146 8.068-30.43 7.955-19.836-.202-29.567-11.182-29.605-32.522 0-21.145.002-42.319.002-63.419 6.535-.093 13.143-.165 19.791-.239-.102 21.469-.138 43.086-.102 64.648.017 5.728 1.372 14.253 10.537 14.315z"/><path d="m206.826 282.858c0 6.697-5.258 11.953-12.098 11.953-6.77 0-12.17-5.256-12.17-11.953 0-6.553 5.4-11.81 12.17-11.81 6.84.001 12.098 5.258 12.098 11.81zm-21.242 0c0 5.257 3.889 9.434 9.217 9.434 5.186 0 9.001-4.177 9.001-9.361 0-5.256-3.815-9.505-9.073-9.505-5.256-.001-9.145 4.248-9.145 9.432zm7.271 6.193h-2.735v-11.81c1.08-.217 2.593-.36 4.536-.36 2.232 0 3.24.36 4.104.864.648.505 1.152 1.439 1.152 2.593 0 1.296-1.008 2.304-2.448 2.736v.144c1.152.434 1.8 1.297 2.16 2.881.36 1.801.576 2.521.864 2.952h-2.952c-.36-.433-.576-1.513-.937-2.881-.217-1.296-.937-1.872-2.449-1.872h-1.295zm.075-6.697h1.295c1.512 0 2.736-.504 2.736-1.729 0-1.08-.792-1.799-2.521-1.799-.719 0-1.224.071-1.512.143v3.386h.002z"/></g></svg>